# File created by Blade
# Date/Time:  Fri Jan 16 19:18:57 2015
# Frame Rate: 120.000 fps
#------------------------------------------------------
:FULLY-SPECIFIED
:DEGREES
208
root 19.963449 35.757711 -22.225253 -168.737976 0.473826 -179.171626
Spine -25.654749 -1.199090 -0.559027
Head 20.148830 -0.482483 -0.712391
LeftShoulder -7.559243 -64.787544 52.210835
LeftArm 48.309994 -23.743058 -8.633776
LeftForeArm -73.537028 -0.000000 71.223886
LeftHand 2.706381 -0.000000 -35.596194
LeftHandThumb1 -26.253704 0.000000 33.147579
RightShoulder -13.671645 26.855051 -49.606205
RightArm 127.195136 67.790804 88.364097
RightForeArm 45.403466 -0.000000 102.506887
RightHand 13.080751 -0.000000 7.513339
RightHandThumb1 -24.326973 -0.000000 -32.862282
LeftUpLeg -2.105717 9.237687 -0.329089
LeftLeg -6.917768 -0.000000 0.000000
LeftFoot -19.698675 26.435677 -17.009517
LeftToeBase 24.237500 -0.000000 -0.000000
RightUpLeg -3.544929 -4.737087 0.543975
RightLeg -2.809536 -0.000000 0.000000
RightFoot -20.892336 -24.223210 18.579567
RightToeBase 22.402542 -0.000000 -0.000000
209
root 19.959762 35.759917 -22.224738 -168.769863 0.452551 -179.187154
Spine -25.646458 -1.178813 -0.525112
Head 20.152632 -0.568036 -0.816209
LeftShoulder -7.709955 -64.352056 52.146161
LeftArm 48.318972 -24.355828 -8.637516
LeftForeArm -73.037666 0.000000 71.015059
LeftHand 2.887434 -0.000000 -35.565225
LeftHandThumb1 -26.253704 0.000000 33.147579
RightShoulder -13.642052 26.840587 -49.661827
RightArm 127.158332 67.620644 88.325805
RightForeArm 45.698124 -0.000000 102.841872
RightHand 13.194952 -0.000000 7.073428
RightHandThumb1 -24.326973 -0.000000 -32.862282
LeftUpLeg -2.083624 9.187499 -0.332151
LeftLeg -6.894020 -0.000000 0.000000
LeftFoot -19.670544 26.420585 -17.012227
LeftToeBase 24.194854 -0.000000 -0.000000
RightUpLeg -3.532507 -4.734202 0.521986
RightLeg -2.768431 -0.000000 0.000000
RightFoot -20.953228 -24.296798 18.579672
RightToeBase 22.503519 -0.000000 -0.000000
210
root 19.955891 35.762526 -22.224706 -168.809773 0.430863 -179.209997
Spine -25.625953 -1.145814 -0.501182
Head 20.134205 -0.636400 -0.956095
LeftShoulder -7.915055 -63.988467 52.140092
LeftArm 48.310328 -24.880907 -8.604872
LeftForeArm -72.706105 -0.000000 70.845727
LeftHand 2.883512 -0.000000 -35.724619
LeftHandThumb1 -26.253704 0.000000 33.147579
RightShoulder -13.500257 26.779784 -49.739178
RightArm 127.431508 67.593851 88.577243
RightForeArm 45.937419 -0.000000 103.215002
RightHand 13.187487 -0.000000 6.512881
RightHandThumb1 -24.326973 -0.000000 -32.862282
LeftUpLeg -2.060824 9.161842 -0.348442
LeftLeg -6.861248 -0.000000 0.000000
LeftFoot -19.680751 26.377527 -17.086604
LeftToeBase 24.129654 -0.000000 -0.000000
RightUpLeg -3.502391 -4.737382 0.495268
RightLeg -2.743647 -0.000000 0.000000
RightFoot -20.958496 -24.301333 18.543092
RightToeBase 22.645100 -0.000000 -0.000000
211
root 19.952950 35.764611 -22.224037 -168.840177 0.415231 -179.228098
Spine -25.629446 -1.086328 -0.492571
Head 20.118677 -0.691558 -1.022544
LeftShoulder -8.095897 -63.894835 52.191463
LeftArm 48.200499 -25.115609 -8.511277
LeftForeArm -72.580220 -0.000000 70.729129
LeftHand 3.084712 -0.000000 -35.569156
LeftHandThumb1 -26.253704 0.000000 33.147579
RightShoulder -13.429489 27.254891 -50.041575
RightArm 126.130110 67.569853 87.466742
RightForeArm 46.136564 -0.000000 103.717926
RightHand 13.118096 -0.000000 5.769592
RightHandThumb1 -24.326973 -0.000000 -32.862282
LeftUpLeg -2.065761 9.219794 -0.374794
LeftLeg -6.813595 -0.000000 0.000000
LeftFoot -19.671545 26.333134 -17.119379
LeftToeBase 24.075962 -0.000000 -0.000000
RightUpLeg -3.492987 -4.742148 0.475190
RightLeg -2.707707 -0.000000 0.000000
RightFoot -20.958191 -24.262598 18.679975
RightToeBase 22.367617 -0.000000 -0.000000
212
root 19.949046 35.766711 -22.222398 -168.868988 0.397218 -179.253972
Spine -25.630075 -1.013646 -0.508476
Head 20.098078 -0.783007 -1.108571
LeftShoulder -8.415916 -63.644685 52.339929
LeftArm 48.246809 -25.476241 -8.629131
LeftForeArm -72.538546 -0.000000 70.589151
LeftHand 3.176429 -0.000000 -35.528321
LeftHandThumb1 -26.253704 0.000000 33.147579
RightShoulder -13.338851 27.496057 -50.182433
RightArm 125.424077 67.516227 86.787151
RightForeArm 46.254765 -0.000000 104.163659
RightHand 13.125689 -0.000000 5.083768
RightHandThumb1 -24.326973 -0.000000 -32.862282
LeftUpLeg -2.059255 9.210314 -0.395377
LeftLeg -6.770439 -0.000000 0.000000
LeftFoot -19.671344 26.266641 -17.141793
LeftToeBase 24.119362 -0.000000 -0.000000
RightUpLeg -3.486285 -4.723450 0.444982
RightLeg -2.660651 -0.000000 0.000000
RightFoot -21.008031 -24.393718 18.566235
RightToeBase 22.587341 -0.000000 -0.000000
213
root 19.945654 35.769081 -22.219892 -168.885681 0.370840 -179.266036
Spine -25.657739 -0.905941 -0.505321
Head 20.109343 -0.797030 -1.195174
LeftShoulder -8.527361 -63.587508 52.351726
LeftArm 48.101255 -25.660646 -8.556618
LeftForeArm -72.626584 0.000000 70.562414
LeftHand 3.506085 -0.000000 -35.316157
LeftHandThumb1 -26.253704 0.000000 33.147579
RightShoulder -13.249553 27.654984 -50.320261
RightArm 124.947513 67.339292 86.300260
RightForeArm 46.186762 0.000000 104.551561
RightHand 13.121898 0.000000 4.632021
RightHandThumb1 -24.326973 -0.000000 -32.862282
LeftUpLeg -2.060104 9.138911 -0.400225
LeftLeg -6.751256 -0.000000 0.000000
LeftFoot -19.679881 26.296520 -17.200278
LeftToeBase 24.070890 -0.000000 -0.000000
RightUpLeg -3.490021 -4.734798 0.429481
RightLeg -2.626562 -0.000000 0.000000
RightFoot -21.018422 -24.361397 18.643688
RightToeBase 22.590254 -0.000000 -0.000000
214
root 19.940899 35.770312 -22.217680 -168.898780 0.341974 -179.284557
Spine -25.684150 -0.780099 -0.520435
Head 20.095153 -0.836191 -1.269429
LeftShoulder -8.726076 -63.516059 52.409724
LeftArm 48.136987 -25.899849 -8.661364
LeftForeArm -72.824360 -0.000000 70.427440
LeftHand 3.619747 -0.000000 -35.177713
LeftHandThumb1 -26.253704 0.000000 33.147579
RightShoulder -13.149874 27.726195 -50.433036
RightArm 124.771478 67.217698 86.086624
RightForeArm 46.073802 -0.000000 104.928641
RightHand 12.954741 -0.000000 4.310147
RightHandThumb1 -24.326973 -0.000000 -32.862282
LeftUpLeg -2.070268 9.112932 -0.419076
LeftLeg -6.719141 -0.000000 0.000000
LeftFoot -19.690769 26.280661 -17.214660
LeftToeBase 24.062475 -0.000000 -0.000000
RightUpLeg -3.522457 -4.815532 0.416655
RightLeg -2.539449 -0.000000 0.000000
RightFoot -21.053488 -24.357078 18.597717
RightToeBase 22.548321 -0.000000 -0.000000
215
root 19.937548 35.772316 -22.214707 -168.909176 0.323286 -179.301353
Spine -25.708604 -0.626354 -0.544547
Head 20.111158 -0.925316 -1.425292
LeftShoulder -8.929630 -63.484983 52.482867
LeftArm 48.133150 -26.125854 -8.810456
LeftForeArm -73.264266 -0.000000 70.349052
LeftHand 3.814621 -0.000000 -34.762944
LeftHandThumb1 -26.253704 0.000000 33.147579
RightShoulder -13.108668 27.777125 -50.530578
RightArm 124.457444 67.019455 85.730808
RightForeArm 45.887563 -0.000000 105.283354
RightHand 12.994059 -0.000000 4.025951
RightHandThumb1 -24.326973 -0.000000 -32.862282
LeftUpLeg -2.077643 9.099536 -0.436491
LeftLeg -6.699117 -0.000000 0.000000
LeftFoot -19.679373 26.263215 -17.251691
LeftToeBase 24.063021 -0.000000 -0.000000
RightUpLeg -3.538303 -4.833453 0.399142
RightLeg -2.496557 -0.000000 0.000000
RightFoot -21.073465 -24.325866 18.584175
RightToeBase 22.699298 -0.000000 -0.000000
216
root 19.935185 35.773104 -22.212073 -168.910186 0.299592 -179.312534
Spine -25.732898 -0.448085 -0.580024
Head 20.070883 -1.038102 -1.558918
LeftShoulder -9.139040 -63.408033 52.564944
LeftArm 48.174105 -26.461873 -9.093272
LeftForeArm -73.491070 0.000000 70.316534
LeftHand 4.029420 -0.000000 -34.724126
LeftHandThumb1 -26.253704 0.000000 33.147579
RightShoulder -13.123131 27.844102 -50.668178
RightArm 124.297230 66.614973 85.604307
RightForeArm 45.868400 -0.000000 105.600862
RightHand 12.769330 -0.000000 4.168016
RightHandThumb1 -24.326973 -0.000000 -32.862282
LeftUpLeg -2.103248 9.134996 -0.453757
LeftLeg -6.666309 -0.000000 0.000000
LeftFoot -19.672826 26.210944 -17.241735
LeftToeBase 24.080936 -0.000000 -0.000000
RightUpLeg -3.546108 -4.809378 0.384408
RightLeg -2.482779 -0.000000 0.000000
RightFoot -21.080937 -24.334389 18.744453
RightToeBase 22.323469 -0.000000 -0.000000
217
root 19.932896 35.773468 -22.209450 -168.912366 0.276061 -179.314955
Spine -25.768195 -0.285552 -0.601971
Head 20.056962 -1.104499 -1.656716
LeftShoulder -9.312816 -63.412516 52.615854
LeftArm 48.221106 -26.748393 -9.402128
LeftForeArm -73.900012 0.000000 70.333284
LeftHand 4.060216 0.000000 -34.626502
LeftHandThumb1 -26.253704 0.000000 33.147579
RightShoulder -12.967493 27.707677 -50.624233
RightArm 124.572365 66.624986 85.727316
RightForeArm 45.681661 0.000000 105.848609
RightHand 12.885509 -0.000000 4.100118
RightHandThumb1 -24.326973 -0.000000 -32.862282
LeftUpLeg -2.115503 9.120396 -0.452825
LeftLeg -6.642774 -0.000000 0.000000
LeftFoot -19.662964 26.171350 -17.211486
LeftToeBase 24.026623 -0.000000 -0.000000
RightUpLeg -3.561981 -4.804057 0.379772
RightLeg -2.448957 -0.000000 0.000000
RightFoot -21.093534 -24.324443 18.718276
RightToeBase 22.442639 -0.000000 -0.000000
218
root 19.929591 35.773569 -22.206345 -168.912010 0.249895 -179.319011
Spine -25.792994 -0.124917 -0.622318
Head 20.049449 -1.149834 -1.725334
LeftShoulder -9.446013 -63.406037 52.612829
LeftArm 48.301172 -27.118147 -9.745920
LeftForeArm -74.292873 0.000000 70.389551
LeftHand 4.074976 0.000000 -34.437572
LeftHandThumb1 -26.253704 0.000000 33.147579
RightShoulder -12.906380 27.771532 -50.702242
RightArm 124.282142 66.579968 85.461090
RightForeArm 45.714296 0.000000 106.146721
RightHand 12.774064 -0.000000 4.311153
RightHandThumb1 -24.326973 -0.000000 -32.862282
LeftUpLeg -2.128232 9.118796 -0.465420
LeftLeg -6.645515 -0.000000 0.000000
LeftFoot -19.659111 26.183712 -17.210091
LeftToeBase 24.075520 -0.000000 -0.000000
RightUpLeg -3.592224 -4.866781 0.380631
RightLeg -2.397970 -0.000000 0.000000
RightFoot -21.130150 -24.344854 18.635410
RightToeBase 22.694956 -0.000000 -0.000000
219
root 19.927163 35.773347 -22.203064 -168.911728 0.226035 -179.318486
Spine -25.827615 0.027059 -0.647262
Head 20.084072 -1.172137 -1.758029
LeftShoulder -9.447111 -63.391610 52.479012
LeftArm 48.404618 -27.577831 -10.017811
LeftForeArm -74.521882 -0.000000 70.457624
LeftHand 4.155484 0.000000 -34.545859
LeftHandThumb1 -26.253704 0.000000 33.147579
RightShoulder -12.864881 27.974362 -50.814770
RightArm 123.463107 66.482911 84.745220
RightForeArm 45.574515 -0.000000 106.488941
RightHand 12.709803 -0.000000 4.298018
RightHandThumb1 -24.326973 -0.000000 -32.862282
LeftUpLeg -2.138899 9.113309 -0.463431
LeftLeg -6.634451 -0.000000 0.000000
LeftFoot -19.656213 26.142353 -17.196112
LeftToeBase 24.082611 -0.000000 -0.000000
RightUpLeg -3.611100 -4.914834 0.382241
RightLeg -2.367223 -0.000000 0.000000
RightFoot -21.125370 -24.323633 18.615589
RightToeBase 22.621991 -0.000000 -0.000000
